<svg xmlns="http://www.w3.org/2000/svg" xmlns:xlink="http://www.w3.org/1999/xlink" width="500" zoomAndPan="magnify" viewBox="0 0 375 374.999991" height="500" preserveAspectRatio="xMidYMid meet" version="1.0"><defs><g/><clipPath id="09b59f3c17"><path d="M 63.863281 195.507812 L 313 195.507812 L 313 305.484375 L 63.863281 305.484375 Z M 63.863281 195.507812 " clip-rule="nonzero"/></clipPath><clipPath id="15edadb43c"><path d="M 71.363281 195.507812 L 305.148438 195.507812 C 309.289062 195.507812 312.648438 198.867188 312.648438 203.007812 L 312.648438 297.984375 C 312.648438 302.125 309.289062 305.484375 305.148438 305.484375 L 71.363281 305.484375 C 67.222656 305.484375 63.863281 302.125 63.863281 297.984375 L 63.863281 203.007812 C 63.863281 198.867188 67.222656 195.507812 71.363281 195.507812 Z M 71.363281 195.507812 " clip-rule="nonzero"/></clipPath><clipPath id="a7f46d6843"><path d="M 63.867188 195.507812 L 312.863281 195.507812 L 312.863281 305.757812 L 63.867188 305.757812 Z M 63.867188 195.507812 " clip-rule="nonzero"/></clipPath><clipPath id="e6c2075ebd"><path d="M 71.367188 195.507812 L 305.136719 195.507812 C 309.277344 195.507812 312.636719 198.867188 312.636719 203.007812 L 312.636719 297.976562 C 312.636719 302.121094 309.277344 305.476562 305.136719 305.476562 L 71.367188 305.476562 C 67.226562 305.476562 63.867188 302.121094 63.867188 297.976562 L 63.867188 203.007812 C 63.867188 198.867188 67.226562 195.507812 71.367188 195.507812 Z M 71.367188 195.507812 " clip-rule="nonzero"/></clipPath><clipPath id="961a12f64f"><path d="M 175.800781 196.40625 L 188.765625 196.40625 L 188.765625 304.585938 L 175.800781 304.585938 Z M 175.800781 196.40625 " clip-rule="nonzero"/></clipPath></defs><g fill="#e2b10e" fill-opacity="1"><g transform="translate(64.719569, 217.742801)"><g><path d="M 17.1875 0 L 2.125 -140.59375 L 29.625 -140.59375 L 37.484375 -51.890625 L 45.34375 -140.59375 L 71.53125 -140.59375 L 79.046875 -51.890625 L 86.578125 -140.59375 L 114.40625 -140.59375 L 99.015625 0 L 65.3125 0 L 58.265625 -67.765625 L 51.5625 0 Z M 17.1875 0 "/></g></g></g><g clip-path="url(#09b59f3c17)"><g clip-path="url(#15edadb43c)"><path fill="#ffffff" d="M 63.863281 195.507812 L 312.597656 195.507812 L 312.597656 305.484375 L 63.863281 305.484375 Z M 63.863281 195.507812 " fill-opacity="1" fill-rule="nonzero"/></g></g><g clip-path="url(#a7f46d6843)"><g clip-path="url(#e6c2075ebd)"><path stroke-linecap="butt" transform="matrix(0.75, 0, 0, 0.75, 63.868616, 195.508113)" fill="none" stroke-linejoin="miter" d="M 9.998097 -0.000400349 L 321.690825 -0.000400349 C 327.211659 -0.000400349 331.690826 4.478767 331.690826 9.9996 L 331.690826 136.624609 C 331.690826 142.150651 327.211659 146.624609 321.690825 146.624609 L 9.998097 146.624609 C 4.477263 146.624609 -0.00190401 142.150651 -0.00190401 136.624609 L -0.00190401 9.9996 C -0.00190401 4.478767 4.477263 -0.000400349 9.998097 -0.000400349 Z M 9.998097 -0.000400349 " stroke="#594fdd" stroke-width="16" stroke-opacity="1" stroke-miterlimit="4"/></g></g><g clip-path="url(#961a12f64f)"><path fill="#594fdd" d="M 175.800781 196.40625 L 188.765625 196.40625 L 188.765625 304.570312 L 175.800781 304.570312 Z M 175.800781 196.40625 " fill-opacity="1" fill-rule="nonzero"/></g><g fill="#656b59" fill-opacity="0.3882"><g transform="translate(241.694389, 292.520674)"><g><path d="M 12.796875 -8.25 C 12.710938 -8.164062 12.691406 -8.078125 12.734375 -7.984375 C 12.773438 -7.898438 12.863281 -7.859375 13 -7.859375 L 26.578125 -7.859375 C 26.785156 -7.859375 26.96875 -7.78125 27.125 -7.625 C 27.28125 -7.476562 27.359375 -7.296875 27.359375 -7.078125 L 27.359375 -0.78125 C 27.359375 -0.5625 27.28125 -0.375 27.125 -0.21875 C 26.96875 -0.0703125 26.785156 0 26.578125 0 L 2.53125 0 C 2.3125 0 2.125 -0.0703125 1.96875 -0.21875 C 1.820312 -0.375 1.75 -0.5625 1.75 -0.78125 L 1.75 -7.34375 C 1.75 -7.726562 1.859375 -8.050781 2.078125 -8.3125 C 3.804688 -10.613281 5.019531 -12.175781 5.71875 -13 C 9.53125 -17.882812 12.238281 -21.585938 13.84375 -24.109375 C 16.175781 -27.828125 17.34375 -30.96875 17.34375 -33.53125 C 17.34375 -35 17.050781 -36.132812 16.46875 -36.9375 C 15.882812 -37.738281 15.09375 -38.140625 14.09375 -38.140625 C 13.101562 -38.140625 12.300781 -37.738281 11.6875 -36.9375 C 11.082031 -36.132812 10.800781 -35.101562 10.84375 -33.84375 L 10.84375 -31.1875 C 10.84375 -30.96875 10.765625 -30.78125 10.609375 -30.625 C 10.460938 -30.476562 10.28125 -30.40625 10.0625 -30.40625 L 2.34375 -30.40625 C 2.125 -30.40625 1.9375 -30.476562 1.78125 -30.625 C 1.632812 -30.78125 1.5625 -30.96875 1.5625 -31.1875 L 1.5625 -34.234375 C 1.726562 -37.785156 3.003906 -40.632812 5.390625 -42.78125 C 7.773438 -44.925781 10.804688 -46 14.484375 -46 C 18.128906 -46 21.066406 -44.847656 23.296875 -42.546875 C 25.523438 -40.253906 26.640625 -37.222656 26.640625 -33.453125 C 26.640625 -31.203125 26.28125 -29.054688 25.5625 -27.015625 C 24.851562 -24.984375 23.695312 -22.800781 22.09375 -20.46875 C 20.875 -18.6875 18.796875 -15.914062 15.859375 -12.15625 Z M 12.796875 -8.25 "/></g></g></g><g fill="#656b59" fill-opacity="1"><g transform="translate(238.47847, 289.304756)"><g><path d="M 12.796875 -8.25 C 12.710938 -8.164062 12.691406 -8.078125 12.734375 -7.984375 C 12.773438 -7.898438 12.863281 -7.859375 13 -7.859375 L 26.578125 -7.859375 C 26.785156 -7.859375 26.96875 -7.78125 27.125 -7.625 C 27.28125 -7.476562 27.359375 -7.296875 27.359375 -7.078125 L 27.359375 -0.78125 C 27.359375 -0.5625 27.28125 -0.375 27.125 -0.21875 C 26.96875 -0.0703125 26.785156 0 26.578125 0 L 2.53125 0 C 2.3125 0 2.125 -0.0703125 1.96875 -0.21875 C 1.820312 -0.375 1.75 -0.5625 1.75 -0.78125 L 1.75 -7.34375 C 1.75 -7.726562 1.859375 -8.050781 2.078125 -8.3125 C 3.804688 -10.613281 5.019531 -12.175781 5.71875 -13 C 9.53125 -17.882812 12.238281 -21.585938 13.84375 -24.109375 C 16.175781 -27.828125 17.34375 -30.96875 17.34375 -33.53125 C 17.34375 -35 17.050781 -36.132812 16.46875 -36.9375 C 15.882812 -37.738281 15.09375 -38.140625 14.09375 -38.140625 C 13.101562 -38.140625 12.300781 -37.738281 11.6875 -36.9375 C 11.082031 -36.132812 10.800781 -35.101562 10.84375 -33.84375 L 10.84375 -31.1875 C 10.84375 -30.96875 10.765625 -30.78125 10.609375 -30.625 C 10.460938 -30.476562 10.28125 -30.40625 10.0625 -30.40625 L 2.34375 -30.40625 C 2.125 -30.40625 1.9375 -30.476562 1.78125 -30.625 C 1.632812 -30.78125 1.5625 -30.96875 1.5625 -31.1875 L 1.5625 -34.234375 C 1.726562 -37.785156 3.003906 -40.632812 5.390625 -42.78125 C 7.773438 -44.925781 10.804688 -46 14.484375 -46 C 18.128906 -46 21.066406 -44.847656 23.296875 -42.546875 C 25.523438 -40.253906 26.640625 -37.222656 26.640625 -33.453125 C 26.640625 -31.203125 26.28125 -29.054688 25.5625 -27.015625 C 24.851562 -24.984375 23.695312 -22.800781 22.09375 -20.46875 C 20.875 -18.6875 18.796875 -15.914062 15.859375 -12.15625 Z M 12.796875 -8.25 "/></g></g></g><g fill="#656b59" fill-opacity="0.3686"><g transform="translate(236.158451, 236.76834)"><g><path d="M 6.6875 -46.5625 C 7.039062 -46.695312 7.375 -46.765625 7.6875 -46.765625 L 15.765625 -46.765625 C 15.992188 -46.765625 16.179688 -46.6875 16.328125 -46.53125 C 16.484375 -46.375 16.5625 -46.1875 16.5625 -45.96875 L 16.5625 -0.796875 C 16.5625 -0.578125 16.484375 -0.390625 16.328125 -0.234375 C 16.179688 -0.078125 15.992188 0 15.765625 0 L 7.953125 0 C 7.722656 0 7.53125 -0.078125 7.375 -0.234375 C 7.226562 -0.390625 7.15625 -0.578125 7.15625 -0.796875 L 7.15625 -37.28125 C 7.15625 -37.457031 7.039062 -37.546875 6.8125 -37.546875 L 1.671875 -36.953125 L 1.53125 -36.953125 C 1.039062 -36.953125 0.796875 -37.195312 0.796875 -37.6875 L 0.59375 -43.421875 C 0.59375 -43.867188 0.796875 -44.179688 1.203125 -44.359375 Z M 6.6875 -46.5625 "/></g></g></g><g fill="#656b59" fill-opacity="1"><g transform="translate(240.271014, 237.493495)"><g><path d="M 6.6875 -46.5625 C 7.039062 -46.695312 7.375 -46.765625 7.6875 -46.765625 L 15.765625 -46.765625 C 15.992188 -46.765625 16.179688 -46.6875 16.328125 -46.53125 C 16.484375 -46.375 16.5625 -46.1875 16.5625 -45.96875 L 16.5625 -0.796875 C 16.5625 -0.578125 16.484375 -0.390625 16.328125 -0.234375 C 16.179688 -0.078125 15.992188 0 15.765625 0 L 7.953125 0 C 7.722656 0 7.53125 -0.078125 7.375 -0.234375 C 7.226562 -0.390625 7.15625 -0.578125 7.15625 -0.796875 L 7.15625 -37.28125 C 7.15625 -37.457031 7.039062 -37.546875 6.8125 -37.546875 L 1.671875 -36.953125 L 1.53125 -36.953125 C 1.039062 -36.953125 0.796875 -37.195312 0.796875 -37.6875 L 0.59375 -43.421875 C 0.59375 -43.867188 0.796875 -44.179688 1.203125 -44.359375 Z M 6.6875 -46.5625 "/></g></g></g><g fill="#e2b10e" fill-opacity="1"><g transform="translate(196.10688, 207.226976)"><g><path d="M 46.625 1.5625 C 34.34375 1.5625 24.515625 -2.285156 17.140625 -9.984375 C 9.765625 -17.691406 6.078125 -28.273438 6.078125 -41.734375 L 6.078125 -119.3125 C 6.078125 -136.03125 9.40625 -148.628906 16.0625 -157.109375 C 22.726562 -165.597656 33.175781 -169.84375 47.40625 -169.84375 C 59.8125 -169.84375 69.800781 -166.445312 77.375 -159.65625 C 84.957031 -152.863281 88.75 -143.070312 88.75 -130.28125 L 88.75 -101.28125 L 55.25 -101.28125 L 55.25 -126.15625 C 55.25 -130.988281 54.660156 -134.316406 53.484375 -136.140625 C 52.304688 -137.972656 50.28125 -138.890625 47.40625 -138.890625 C 44.40625 -138.890625 42.347656 -137.84375 41.234375 -135.75 C 40.128906 -133.664062 39.578125 -130.601562 39.578125 -126.5625 L 39.578125 -42.125 C 39.578125 -37.675781 40.226562 -34.441406 41.53125 -32.421875 C 42.832031 -30.398438 44.789062 -29.390625 47.40625 -29.390625 C 52.632812 -29.390625 55.25 -33.632812 55.25 -42.125 L 55.25 -72.484375 L 89.140625 -72.484375 L 89.140625 -40.75 C 89.140625 -12.539062 74.96875 1.5625 46.625 1.5625 Z M 46.625 1.5625 "/></g></g></g><g fill="#656b59" fill-opacity="0.4588"><g transform="translate(110.103996, 281.867267)"><g><path d="M 16.625 0.8125 C 12.3125 0.8125 8.828125 -0.546875 6.171875 -3.265625 C 3.523438 -5.992188 2.203125 -9.59375 2.203125 -14.0625 L 2.203125 -37.453125 C 2.203125 -41.921875 3.523438 -45.515625 6.171875 -48.234375 C 8.828125 -50.960938 12.3125 -52.328125 16.625 -52.328125 C 19.476562 -52.328125 22.007812 -51.710938 24.21875 -50.484375 C 26.425781 -49.253906 28.128906 -47.507812 29.328125 -45.25 C 30.523438 -43 31.125 -40.398438 31.125 -37.453125 L 31.125 -14.0625 C 31.125 -11.113281 30.523438 -8.507812 29.328125 -6.25 C 28.128906 -4 26.425781 -2.257812 24.21875 -1.03125 C 22.007812 0.195312 19.476562 0.8125 16.625 0.8125 Z M 16.625 -8.09375 C 17.851562 -8.09375 18.847656 -8.582031 19.609375 -9.5625 C 20.367188 -10.550781 20.75 -11.851562 20.75 -13.46875 L 20.75 -38.046875 C 20.75 -39.671875 20.367188 -40.972656 19.609375 -41.953125 C 18.847656 -42.929688 17.851562 -43.421875 16.625 -43.421875 C 15.40625 -43.421875 14.425781 -42.929688 13.6875 -41.953125 C 12.945312 -40.972656 12.578125 -39.671875 12.578125 -38.046875 L 12.578125 -13.46875 C 12.578125 -11.851562 12.945312 -10.550781 13.6875 -9.5625 C 14.425781 -8.582031 15.40625 -8.09375 16.625 -8.09375 Z M 16.625 -8.09375 "/></g></g></g><g fill="#656b59" fill-opacity="1"><g transform="translate(106.331093, 278.094357)"><g><path d="M 16.625 0.8125 C 12.3125 0.8125 8.828125 -0.546875 6.171875 -3.265625 C 3.523438 -5.992188 2.203125 -9.59375 2.203125 -14.0625 L 2.203125 -37.453125 C 2.203125 -41.921875 3.523438 -45.515625 6.171875 -48.234375 C 8.828125 -50.960938 12.3125 -52.328125 16.625 -52.328125 C 19.476562 -52.328125 22.007812 -51.710938 24.21875 -50.484375 C 26.425781 -49.253906 28.128906 -47.507812 29.328125 -45.25 C 30.523438 -43 31.125 -40.398438 31.125 -37.453125 L 31.125 -14.0625 C 31.125 -11.113281 30.523438 -8.507812 29.328125 -6.25 C 28.128906 -4 26.425781 -2.257812 24.21875 -1.03125 C 22.007812 0.195312 19.476562 0.8125 16.625 0.8125 Z M 16.625 -8.09375 C 17.851562 -8.09375 18.847656 -8.582031 19.609375 -9.5625 C 20.367188 -10.550781 20.75 -11.851562 20.75 -13.46875 L 20.75 -38.046875 C 20.75 -39.671875 20.367188 -40.972656 19.609375 -41.953125 C 18.847656 -42.929688 17.851562 -43.421875 16.625 -43.421875 C 15.40625 -43.421875 14.425781 -42.929688 13.6875 -41.953125 C 12.945312 -40.972656 12.578125 -39.671875 12.578125 -38.046875 L 12.578125 -13.46875 C 12.578125 -11.851562 12.945312 -10.550781 13.6875 -9.5625 C 14.425781 -8.582031 15.40625 -8.09375 16.625 -8.09375 Z M 16.625 -8.09375 "/></g></g></g></svg>