<svg xmlns="http://www.w3.org/2000/svg" xmlns:xlink="http://www.w3.org/1999/xlink" width="500" zoomAndPan="magnify" viewBox="0 0 375 374.999991" height="500" preserveAspectRatio="xMidYMid meet" version="1.0"><defs><g/><clipPath id="ce50d2b736"><path d="M 136.050781 186.632812 L 229 186.632812 L 229 232.648438 L 136.050781 232.648438 Z M 136.050781 186.632812 " clip-rule="nonzero"/></clipPath><clipPath id="b693649378"><path d="M 143.550781 186.632812 L 221.554688 186.632812 C 225.699219 186.632812 229.054688 189.992188 229.054688 194.132812 L 229.054688 225.148438 C 229.054688 229.289062 225.699219 232.648438 221.554688 232.648438 L 143.550781 232.648438 C 139.410156 232.648438 136.050781 229.289062 136.050781 225.148438 L 136.050781 194.132812 C 136.050781 189.992188 139.410156 186.632812 143.550781 186.632812 Z M 143.550781 186.632812 " clip-rule="nonzero"/></clipPath><clipPath id="3b1ec32436"><path d="M 136.054688 186.632812 L 229.050781 186.632812 L 229.050781 232.382812 L 136.054688 232.382812 Z M 136.054688 186.632812 " clip-rule="nonzero"/></clipPath><clipPath id="0777918117"><path d="M 143.554688 186.632812 L 221.546875 186.632812 C 225.691406 186.632812 229.046875 189.992188 229.046875 194.132812 L 229.046875 225.144531 C 229.046875 229.285156 225.691406 232.640625 221.546875 232.640625 L 143.554688 232.640625 C 139.410156 232.640625 136.054688 229.285156 136.054688 225.144531 L 136.054688 194.132812 C 136.054688 189.992188 139.410156 186.632812 143.554688 186.632812 Z M 143.554688 186.632812 " clip-rule="nonzero"/></clipPath><clipPath id="f7ddcab89b"><path d="M 182.554688 192.484375 L 186.601562 192.484375 L 186.601562 226.800781 L 182.554688 226.800781 Z M 182.554688 192.484375 " clip-rule="nonzero"/></clipPath></defs><g fill="#e2b10e" fill-opacity="1"><g transform="translate(134.703237, 195.93752)"><g><path d="M 7.1875 0 L 0.890625 -58.828125 L 12.390625 -58.828125 L 15.6875 -21.703125 L 18.96875 -58.828125 L 29.921875 -58.828125 L 33.078125 -21.703125 L 36.234375 -58.828125 L 47.875 -58.828125 L 41.4375 0 L 27.328125 0 L 24.375 -28.359375 L 21.578125 0 Z M 7.1875 0 "/></g></g></g><g clip-path="url(#ce50d2b736)"><g clip-path="url(#b693649378)"><path fill="#ffffff" d="M 136.050781 186.632812 L 228.976562 186.632812 L 228.976562 232.648438 L 136.050781 232.648438 Z M 136.050781 186.632812 " fill-opacity="1" fill-rule="nonzero"/></g></g><g clip-path="url(#3b1ec32436)"><g clip-path="url(#0777918117)"><path stroke-linecap="butt" transform="matrix(0.75, 0, 0, 0.75, 136.053862, 186.634557)" fill="none" stroke-linejoin="miter" d="M 10.001101 -0.00232646 L 113.990684 -0.00232646 C 119.516726 -0.00232646 123.990684 4.47684 123.990684 9.997674 L 123.990684 51.346632 C 123.990684 56.867465 119.516726 61.341424 113.990684 61.341424 L 10.001101 61.341424 C 4.475059 61.341424 0.00110071 56.867465 0.00110071 51.346632 L 0.00110071 9.997674 C 0.00110071 4.47684 4.475059 -0.00232646 10.001101 -0.00232646 Z M 10.001101 -0.00232646 " stroke="#594fdd" stroke-width="16" stroke-opacity="1" stroke-miterlimit="4"/></g></g><g clip-path="url(#f7ddcab89b)"><path fill="#594fdd" d="M 182.554688 192.484375 L 186.601562 192.484375 L 186.601562 226.796875 L 182.554688 226.796875 Z M 182.554688 192.484375 " fill-opacity="1" fill-rule="nonzero"/></g><g fill="#656b59" fill-opacity="0.3882"><g transform="translate(208.749204, 227.224457)"><g><path d="M 5.359375 -3.453125 C 5.316406 -3.421875 5.304688 -3.382812 5.328125 -3.34375 C 5.347656 -3.3125 5.382812 -3.296875 5.4375 -3.296875 L 11.125 -3.296875 C 11.207031 -3.296875 11.28125 -3.257812 11.34375 -3.1875 C 11.414062 -3.125 11.453125 -3.050781 11.453125 -2.96875 L 11.453125 -0.328125 C 11.453125 -0.234375 11.414062 -0.15625 11.34375 -0.09375 C 11.28125 -0.03125 11.207031 0 11.125 0 L 1.0625 0 C 0.96875 0 0.890625 -0.03125 0.828125 -0.09375 C 0.765625 -0.15625 0.734375 -0.234375 0.734375 -0.328125 L 0.734375 -3.078125 C 0.734375 -3.234375 0.78125 -3.367188 0.875 -3.484375 C 1.59375 -4.441406 2.097656 -5.09375 2.390625 -5.4375 C 3.984375 -7.488281 5.117188 -9.039062 5.796875 -10.09375 C 6.773438 -11.644531 7.265625 -12.957031 7.265625 -14.03125 C 7.265625 -14.644531 7.140625 -15.117188 6.890625 -15.453125 C 6.648438 -15.785156 6.320312 -15.953125 5.90625 -15.953125 C 5.488281 -15.953125 5.148438 -15.785156 4.890625 -15.453125 C 4.640625 -15.117188 4.523438 -14.691406 4.546875 -14.171875 L 4.546875 -13.046875 C 4.546875 -12.960938 4.507812 -12.882812 4.4375 -12.8125 C 4.375 -12.75 4.300781 -12.71875 4.21875 -12.71875 L 0.984375 -12.71875 C 0.890625 -12.71875 0.8125 -12.75 0.75 -12.8125 C 0.6875 -12.882812 0.65625 -12.960938 0.65625 -13.046875 L 0.65625 -14.328125 C 0.726562 -15.816406 1.257812 -17.007812 2.25 -17.90625 C 3.25 -18.800781 4.519531 -19.25 6.0625 -19.25 C 7.582031 -19.25 8.804688 -18.765625 9.734375 -17.796875 C 10.671875 -16.835938 11.140625 -15.570312 11.140625 -14 C 11.140625 -13.0625 10.988281 -12.164062 10.6875 -11.3125 C 10.394531 -10.457031 9.914062 -9.539062 9.25 -8.5625 C 8.738281 -7.820312 7.867188 -6.660156 6.640625 -5.078125 Z M 5.359375 -3.453125 "/></g></g></g><g fill="#656b59" fill-opacity="1"><g transform="translate(207.403673, 225.878923)"><g><path d="M 5.359375 -3.453125 C 5.316406 -3.421875 5.304688 -3.382812 5.328125 -3.34375 C 5.347656 -3.3125 5.382812 -3.296875 5.4375 -3.296875 L 11.125 -3.296875 C 11.207031 -3.296875 11.28125 -3.257812 11.34375 -3.1875 C 11.414062 -3.125 11.453125 -3.050781 11.453125 -2.96875 L 11.453125 -0.328125 C 11.453125 -0.234375 11.414062 -0.15625 11.34375 -0.09375 C 11.28125 -0.03125 11.207031 0 11.125 0 L 1.0625 0 C 0.96875 0 0.890625 -0.03125 0.828125 -0.09375 C 0.765625 -0.15625 0.734375 -0.234375 0.734375 -0.328125 L 0.734375 -3.078125 C 0.734375 -3.234375 0.78125 -3.367188 0.875 -3.484375 C 1.59375 -4.441406 2.097656 -5.09375 2.390625 -5.4375 C 3.984375 -7.488281 5.117188 -9.039062 5.796875 -10.09375 C 6.773438 -11.644531 7.265625 -12.957031 7.265625 -14.03125 C 7.265625 -14.644531 7.140625 -15.117188 6.890625 -15.453125 C 6.648438 -15.785156 6.320312 -15.953125 5.90625 -15.953125 C 5.488281 -15.953125 5.148438 -15.785156 4.890625 -15.453125 C 4.640625 -15.117188 4.523438 -14.691406 4.546875 -14.171875 L 4.546875 -13.046875 C 4.546875 -12.960938 4.507812 -12.882812 4.4375 -12.8125 C 4.375 -12.75 4.300781 -12.71875 4.21875 -12.71875 L 0.984375 -12.71875 C 0.890625 -12.71875 0.8125 -12.75 0.75 -12.8125 C 0.6875 -12.882812 0.65625 -12.960938 0.65625 -13.046875 L 0.65625 -14.328125 C 0.726562 -15.816406 1.257812 -17.007812 2.25 -17.90625 C 3.25 -18.800781 4.519531 -19.25 6.0625 -19.25 C 7.582031 -19.25 8.804688 -18.765625 9.734375 -17.796875 C 10.671875 -16.835938 11.140625 -15.570312 11.140625 -14 C 11.140625 -13.0625 10.988281 -12.164062 10.6875 -11.3125 C 10.394531 -10.457031 9.914062 -9.539062 9.25 -8.5625 C 8.738281 -7.820312 7.867188 -6.660156 6.640625 -5.078125 Z M 5.359375 -3.453125 "/></g></g></g><g fill="#656b59" fill-opacity="0.3686"><g transform="translate(206.432979, 203.89778)"><g><path d="M 2.796875 -19.484375 C 2.941406 -19.535156 3.082031 -19.5625 3.21875 -19.5625 L 6.59375 -19.5625 C 6.6875 -19.5625 6.765625 -19.53125 6.828125 -19.46875 C 6.898438 -19.40625 6.9375 -19.328125 6.9375 -19.234375 L 6.9375 -0.328125 C 6.9375 -0.242188 6.898438 -0.164062 6.828125 -0.09375 C 6.765625 -0.03125 6.6875 0 6.59375 0 L 3.328125 0 C 3.234375 0 3.148438 -0.03125 3.078125 -0.09375 C 3.015625 -0.164062 2.984375 -0.242188 2.984375 -0.328125 L 2.984375 -15.59375 C 2.984375 -15.664062 2.9375 -15.703125 2.84375 -15.703125 L 0.703125 -15.453125 L 0.640625 -15.453125 C 0.429688 -15.453125 0.328125 -15.554688 0.328125 -15.765625 L 0.25 -18.171875 C 0.25 -18.359375 0.332031 -18.488281 0.5 -18.5625 Z M 2.796875 -19.484375 "/></g></g></g><g fill="#656b59" fill-opacity="1"><g transform="translate(208.153673, 204.201178)"><g><path d="M 2.796875 -19.484375 C 2.941406 -19.535156 3.082031 -19.5625 3.21875 -19.5625 L 6.59375 -19.5625 C 6.6875 -19.5625 6.765625 -19.53125 6.828125 -19.46875 C 6.898438 -19.40625 6.9375 -19.328125 6.9375 -19.234375 L 6.9375 -0.328125 C 6.9375 -0.242188 6.898438 -0.164062 6.828125 -0.09375 C 6.765625 -0.03125 6.6875 0 6.59375 0 L 3.328125 0 C 3.234375 0 3.148438 -0.03125 3.078125 -0.09375 C 3.015625 -0.164062 2.984375 -0.242188 2.984375 -0.328125 L 2.984375 -15.59375 C 2.984375 -15.664062 2.9375 -15.703125 2.84375 -15.703125 L 0.703125 -15.453125 L 0.640625 -15.453125 C 0.429688 -15.453125 0.328125 -15.554688 0.328125 -15.765625 L 0.25 -18.171875 C 0.25 -18.359375 0.332031 -18.488281 0.5 -18.5625 Z M 2.796875 -19.484375 "/></g></g></g><g fill="#e2b10e" fill-opacity="1"><g transform="translate(189.675465, 191.537703)"><g><path d="M 19.515625 0.65625 C 14.367188 0.65625 10.253906 -0.953125 7.171875 -4.171875 C 4.085938 -7.398438 2.546875 -11.828125 2.546875 -17.453125 L 2.546875 -49.921875 C 2.546875 -56.910156 3.9375 -62.179688 6.71875 -65.734375 C 9.507812 -69.285156 13.882812 -71.0625 19.84375 -71.0625 C 25.03125 -71.0625 29.207031 -69.640625 32.375 -66.796875 C 35.539062 -63.960938 37.125 -59.867188 37.125 -54.515625 L 37.125 -42.375 L 23.109375 -42.375 L 23.109375 -52.78125 C 23.109375 -54.8125 22.863281 -56.207031 22.375 -56.96875 C 21.882812 -57.726562 21.039062 -58.109375 19.84375 -58.109375 C 18.582031 -58.109375 17.71875 -57.671875 17.25 -56.796875 C 16.789062 -55.929688 16.5625 -54.648438 16.5625 -52.953125 L 16.5625 -17.625 C 16.5625 -15.769531 16.832031 -14.414062 17.375 -13.5625 C 17.925781 -12.71875 18.75 -12.296875 19.84375 -12.296875 C 22.019531 -12.296875 23.109375 -14.070312 23.109375 -17.625 L 23.109375 -30.328125 L 37.296875 -30.328125 L 37.296875 -17.046875 C 37.296875 -5.242188 31.367188 0.65625 19.515625 0.65625 Z M 19.515625 0.65625 "/></g></g></g><g fill="#656b59" fill-opacity="0.4588"><g transform="translate(156.162285, 222.767072)"><g><path d="M 6.953125 0.34375 C 5.148438 0.34375 3.691406 -0.222656 2.578125 -1.359375 C 1.472656 -2.503906 0.921875 -4.007812 0.921875 -5.875 L 0.921875 -15.671875 C 0.921875 -17.546875 1.472656 -19.050781 2.578125 -20.1875 C 3.691406 -21.320312 5.148438 -21.890625 6.953125 -21.890625 C 8.148438 -21.890625 9.207031 -21.632812 10.125 -21.125 C 11.050781 -20.613281 11.765625 -19.882812 12.265625 -18.9375 C 12.773438 -17.988281 13.03125 -16.898438 13.03125 -15.671875 L 13.03125 -5.875 C 13.03125 -4.644531 12.773438 -3.554688 12.265625 -2.609375 C 11.765625 -1.671875 11.050781 -0.941406 10.125 -0.421875 C 9.207031 0.0859375 8.148438 0.34375 6.953125 0.34375 Z M 6.953125 -3.390625 C 7.472656 -3.390625 7.890625 -3.59375 8.203125 -4 C 8.523438 -4.414062 8.6875 -4.960938 8.6875 -5.640625 L 8.6875 -15.921875 C 8.6875 -16.597656 8.523438 -17.140625 8.203125 -17.546875 C 7.890625 -17.960938 7.472656 -18.171875 6.953125 -18.171875 C 6.441406 -18.171875 6.03125 -17.960938 5.71875 -17.546875 C 5.414062 -17.140625 5.265625 -16.597656 5.265625 -15.921875 L 5.265625 -5.640625 C 5.265625 -4.960938 5.414062 -4.414062 5.71875 -4 C 6.03125 -3.59375 6.441406 -3.390625 6.953125 -3.390625 Z M 6.953125 -3.390625 "/></g></g></g><g fill="#656b59" fill-opacity="1"><g transform="translate(154.583711, 221.188496)"><g><path d="M 6.953125 0.34375 C 5.148438 0.34375 3.691406 -0.222656 2.578125 -1.359375 C 1.472656 -2.503906 0.921875 -4.007812 0.921875 -5.875 L 0.921875 -15.671875 C 0.921875 -17.546875 1.472656 -19.050781 2.578125 -20.1875 C 3.691406 -21.320312 5.148438 -21.890625 6.953125 -21.890625 C 8.148438 -21.890625 9.207031 -21.632812 10.125 -21.125 C 11.050781 -20.613281 11.765625 -19.882812 12.265625 -18.9375 C 12.773438 -17.988281 13.03125 -16.898438 13.03125 -15.671875 L 13.03125 -5.875 C 13.03125 -4.644531 12.773438 -3.554688 12.265625 -2.609375 C 11.765625 -1.671875 11.050781 -0.941406 10.125 -0.421875 C 9.207031 0.0859375 8.148438 0.34375 6.953125 0.34375 Z M 6.953125 -3.390625 C 7.472656 -3.390625 7.890625 -3.59375 8.203125 -4 C 8.523438 -4.414062 8.6875 -4.960938 8.6875 -5.640625 L 8.6875 -15.921875 C 8.6875 -16.597656 8.523438 -17.140625 8.203125 -17.546875 C 7.890625 -17.960938 7.472656 -18.171875 6.953125 -18.171875 C 6.441406 -18.171875 6.03125 -17.960938 5.71875 -17.546875 C 5.414062 -17.140625 5.265625 -16.597656 5.265625 -15.921875 L 5.265625 -5.640625 C 5.265625 -4.960938 5.414062 -4.414062 5.71875 -4 C 6.03125 -3.59375 6.441406 -3.390625 6.953125 -3.390625 Z M 6.953125 -3.390625 "/></g></g></g></svg>